<svg width="30" height="30" viewBox="0 0 30 30" fill="none"
    xmlns="http://www.w3.org/2000/svg">
    <path d="M15 10C13.6739 10 12.4021 10.5268 11.4645 11.4645C10.5268 12.4021 10 13.6739 10 15C10 16.3261 10.5268 17.5979 11.4645 18.5355C12.4021 19.4732 13.6739 20 15 20C16.3261 20 17.5979 19.4732 18.5355 18.5355C19.4732 17.5979 20 16.3261 20 15C20 13.6739 19.4732 12.4021 18.5355 11.4645C17.5979 10.5268 16.3261 10 15 10Z" fill="#1C1C1C"/>
    <path fill-rule="evenodd" clip-rule="evenodd" d="M6.46561 0.47077C12.1379 -0.156923 17.8622 -0.156923 23.5345 0.47077C26.6333 0.81614 29.1316 3.25165 29.4955 6.35672C30.1682 12.0988 30.1682 17.8995 29.4955 23.6415C29.1316 26.7466 26.6333 29.1821 23.5361 29.5291C17.8633 30.157 12.1384 30.157 6.46561 29.5291C3.36678 29.1821 0.868462 26.7466 0.504566 23.6431C-0.168189 17.9006 -0.168189 12.0993 0.504566 6.35672C0.868462 3.25165 3.36678 0.81614 6.46561 0.47077ZM23.1591 5.2245C22.7264 5.2245 22.3113 5.39613 22.0053 5.70165C21.6992 6.00717 21.5273 6.42153 21.5273 6.8536C21.5273 7.28567 21.6992 7.70003 22.0053 8.00555C22.3113 8.31107 22.7264 8.4827 23.1591 8.4827C23.5919 8.4827 24.007 8.31107 24.313 8.00555C24.619 7.70003 24.791 7.28567 24.791 6.8536C24.791 6.42153 24.619 6.00717 24.313 5.70165C24.007 5.39613 23.5919 5.2245 23.1591 5.2245ZM7.24888 14.9991C7.24888 12.9468 8.06552 10.9786 9.51914 9.52736C10.9728 8.07615 12.9443 7.26088 15 7.26088C17.0558 7.26088 19.0273 8.07615 20.4809 9.52736C21.9346 10.9786 22.7512 12.9468 22.7512 14.9991C22.7512 17.0514 21.9346 19.0197 20.4809 20.4709C19.0273 21.9221 17.0558 22.7374 15 22.7374C12.9443 22.7374 10.9728 21.9221 9.51914 20.4709C8.06552 19.0197 7.24888 17.0514 7.24888 14.9991Z" fill="#1C1C1C"/>
</svg>    