<svg width="30" height="30" viewBox="0 0 30 30" fill="none"
    xmlns="http://www.w3.org/2000/svg">
    <path fill-rule="evenodd" clip-rule="evenodd" d="M0.333313 2.78392C0.333313 2.13396 0.591508 1.51063 1.0511 1.05104C1.51069 0.59145 2.13402 0.333255 2.78398 0.333255H27.2133C27.5354 0.332729 27.8545 0.395739 28.1522 0.518677C28.4499 0.641616 28.7204 0.822068 28.9483 1.0497C29.1762 1.27734 29.3569 1.54769 29.4802 1.84527C29.6035 2.14285 29.6668 2.46182 29.6666 2.78392V27.2133C29.667 27.5354 29.6038 27.8545 29.4807 28.1522C29.3577 28.4499 29.1771 28.7205 28.9493 28.9483C28.7216 29.1762 28.4512 29.3569 28.1535 29.4802C27.8558 29.6034 27.5368 29.6668 27.2146 29.6666H2.78398C2.46204 29.6666 2.14326 29.6032 1.84584 29.4799C1.54843 29.3567 1.27821 29.176 1.05063 28.9483C0.823043 28.7206 0.642556 28.4503 0.519476 28.1528C0.396397 27.8553 0.333138 27.5365 0.333313 27.2146V2.78392ZM11.944 11.5173H15.916V13.5119C16.4893 12.3653 17.956 11.3333 20.16 11.3333C24.3853 11.3333 25.3866 13.6173 25.3866 17.8079V25.5706H21.1106V18.7626C21.1106 16.3759 20.5373 15.0293 19.0813 15.0293C17.0613 15.0293 16.2213 16.4813 16.2213 18.7626V25.5706H11.944V11.5173ZM4.61065 25.3879H8.88798V11.3333H4.61065V25.3879ZM9.49998 6.74926C9.50805 7.11549 9.44288 7.47964 9.3083 7.82034C9.17372 8.16104 8.97245 8.47144 8.71629 8.7333C8.46013 8.99516 8.15424 9.20322 7.81659 9.34526C7.47893 9.48731 7.1163 9.56048 6.74998 9.56048C6.38366 9.56048 6.02103 9.48731 5.68337 9.34526C5.34572 9.20322 5.03983 8.99516 4.78367 8.7333C4.52751 8.47144 4.32624 8.16104 4.19166 7.82034C4.05708 7.47964 3.99192 7.11549 3.99998 6.74926C4.01581 6.03039 4.31249 5.34631 4.82649 4.8435C5.34049 4.3407 6.03095 4.05915 6.74998 4.05915C7.46902 4.05915 8.15947 4.3407 8.67347 4.8435C9.18747 5.34631 9.48415 6.03039 9.49998 6.74926Z" fill="#1C1C1C"/>
</svg>